<svg xmlns="http://www.w3.org/2000/svg" viewBox="0 0 100 100">
  <defs>
    <linearGradient id="brainGradient" x1="0%" y1="0%" x2="100%" y2="100%">
      <stop offset="0%" style="stop-color:#6366f1;stop-opacity:1" />
      <stop offset="100%" style="stop-color:#ec4899;stop-opacity:1" />
    </linearGradient>
  </defs>
  
  <!-- Background circle -->
  <circle cx="50" cy="50" r="45" fill="url(#brainGradient)" opacity="0.1"/>
  
  <!-- Brain shape -->
  <path d="M30 35 Q25 25 35 20 Q45 15 50 20 Q55 15 65 20 Q75 25 70 35 Q75 45 70 55 Q75 65 65 70 Q55 75 50 70 Q45 75 35 70 Q25 65 30 55 Q25 45 30 35 Z" 
        fill="url(#brainGradient)" 
        stroke="url(#brainGradient)" 
        stroke-width="2"/>
  
  <!-- Neural network lines -->
  <path d="M40 30 Q45 40 50 35 Q55 40 60 30" stroke="white" stroke-width="1.5" fill="none" opacity="0.7"/>
  <path d="M35 50 Q45 45 50 50 Q55 45 65 50" stroke="white" stroke-width="1.5" fill="none" opacity="0.7"/>
  <path d="M40 70 Q45 60 50 65 Q55 60 60 70" stroke="white" stroke-width="1.5" fill="none" opacity="0.7"/>
  
  <!-- Connection nodes -->
  <circle cx="40" cy="30" r="2" fill="white" opacity="0.8"/>
  <circle cx="50" cy="35" r="2" fill="white" opacity="0.8"/>
  <circle cx="60" cy="30" r="2" fill="white" opacity="0.8"/>
  <circle cx="35" cy="50" r="2" fill="white" opacity="0.8"/>
  <circle cx="50" cy="50" r="2" fill="white" opacity="0.8"/>
  <circle cx="65" cy="50" r="2" fill="white" opacity="0.8"/>
  <circle cx="40" cy="70" r="2" fill="white" opacity="0.8"/>
  <circle cx="50" cy="65" r="2" fill="white" opacity="0.8"/>
  <circle cx="60" cy="70" r="2" fill="white" opacity="0.8"/>
</svg>