<svg xmlns="http://www.w3.org/2000/svg" viewBox="0 0 100 100">
  <defs>
    <linearGradient id="vibrantGradient" x1="0%" y1="0%" x2="100%" y2="100%">
      <stop offset="0%" style="stop-color:#0ea5e9;stop-opacity:1" />
      <stop offset="50%" style="stop-color:#10b981;stop-opacity:1" />
      <stop offset="100%" style="stop-color:#a855f7;stop-opacity:1" />
    </linearGradient>
    <linearGradient id="glowGradient" x1="0%" y1="0%" x2="100%" y2="100%">
      <stop offset="0%" style="stop-color:#f43f5e;stop-opacity:0.8" />
      <stop offset="100%" style="stop-color:#fb923c;stop-opacity:0.8" />
    </linearGradient>
  </defs>
  
  <!-- Background with glow -->
  <circle cx="50" cy="50" r="48" fill="url(#vibrantGradient)"/>
  <circle cx="50" cy="50" r="42" fill="#0f172a" opacity="0.95"/>
  
  <!-- Brain icon with modern styling -->
  <path d="M30 40 Q28 32 35 28 Q42 24 48 28 Q52 24 58 28 Q65 32 63 40 Q66 48 63 56 Q65 64 58 68 Q52 72 48 68 Q42 72 35 68 Q28 64 30 56 Q27 48 30 40 Z" 
        fill="none"
        stroke="url(#vibrantGradient)" 
        stroke-width="2.5"
        stroke-linecap="round"
        stroke-linejoin="round"/>
  
  <!-- Neural network connections -->
  <path d="M38 35 L48 42 L58 35" stroke="url(#glowGradient)" stroke-width="2" fill="none" stroke-linecap="round"/>
  <path d="M35 48 L48 48 L61 48" stroke="url(#glowGradient)" stroke-width="2" fill="none" stroke-linecap="round"/>
  <path d="M38 61 L48 54 L58 61" stroke="url(#glowGradient)" stroke-width="2" fill="none" stroke-linecap="round"/>
  
  <!-- Glowing nodes -->
  <circle cx="38" cy="35" r="3" fill="url(#vibrantGradient)">
    <animate attributeName="opacity" values="0.6;1;0.6" dur="2s" repeatCount="indefinite"/>
  </circle>
  <circle cx="48" cy="42" r="3" fill="url(#vibrantGradient)">
    <animate attributeName="opacity" values="0.6;1;0.6" dur="2s" begin="0.3s" repeatCount="indefinite"/>
  </circle>
  <circle cx="58" cy="35" r="3" fill="url(#vibrantGradient)">
    <animate attributeName="opacity" values="0.6;1;0.6" dur="2s" begin="0.6s" repeatCount="indefinite"/>
  </circle>
  <circle cx="35" cy="48" r="3" fill="url(#vibrantGradient)">
    <animate attributeName="opacity" values="0.6;1;0.6" dur="2s" begin="0.9s" repeatCount="indefinite"/>
  </circle>
  <circle cx="48" cy="48" r="4" fill="url(#glowGradient)">
    <animate attributeName="r" values="3;5;3" dur="2s" repeatCount="indefinite"/>
  </circle>
  <circle cx="61" cy="48" r="3" fill="url(#vibrantGradient)">
    <animate attributeName="opacity" values="0.6;1;0.6" dur="2s" begin="1.2s" repeatCount="indefinite"/>
  </circle>
  <circle cx="38" cy="61" r="3" fill="url(#vibrantGradient)">
    <animate attributeName="opacity" values="0.6;1;0.6" dur="2s" begin="1.5s" repeatCount="indefinite"/>
  </circle>
  <circle cx="48" cy="54" r="3" fill="url(#vibrantGradient)">
    <animate attributeName="opacity" values="0.6;1;0.6" dur="2s" begin="1.8s" repeatCount="indefinite"/>
  </circle>
  <circle cx="58" cy="61" r="3" fill="url(#vibrantGradient)">
    <animate attributeName="opacity" values="0.6;1;0.6" dur="2s" begin="0.2s" repeatCount="indefinite"/>
  </circle>
</svg>
